<svg xmlns="http://www.w3.org/2000/svg" xmlns:xlink="http://www.w3.org/1999/xlink" width="96" zoomAndPan="magnify" viewBox="0 0 72 72" height="96" preserveAspectRatio="xMidYMid meet" version="1.0"><path fill="#fb872c" d="M 62.949219 0.140625 L 9.03125 0.140625 C 4.074219 0.140625 0 4.207031 0 9.140625 L 0 62.816406 C 0 67.75 4.074219 71.859375 9.03125 71.859375 L 35.859375 71.859375 L 35.859375 47.109375 L 27 47.109375 L 27 36.140625 L 35.859375 36.140625 L 35.859375 27.03125 C 35.859375 19.621094 42.023438 13.78125 49.46875 13.78125 L 58.640625 13.78125 L 58.640625 24.890625 L 53.964844 24.890625 C 51.484375 24.890625 49.5 24.5625 49.5 27.03125 L 49.5 36.140625 L 60.703125 36.140625 L 56.210938 47.109375 L 49.5 47.109375 L 49.5 71.859375 L 62.949219 71.859375 C 67.90625 71.859375 72 67.75 72 62.816406 L 72 9.140625 C 72 4.207031 67.90625 0.140625 62.949219 0.140625 Z M 62.949219 0.140625 " fill-opacity="1" fill-rule="nonzero"/></svg>