<svg xmlns="http://www.w3.org/2000/svg" xmlns:xlink="http://www.w3.org/1999/xlink" width="96" zoomAndPan="magnify" viewBox="0 0 72 72" height="96" preserveAspectRatio="xMidYMid meet" version="1.0"><path fill="#fb872c" d="M 54.523438 72 L 17.664062 72 C 7.925781 72 0.09375 64.167969 0.09375 54.429688 L 0.09375 17.570312 C 0.09375 7.832031 7.925781 0 17.664062 0 L 54.335938 0 C 64.074219 0 71.90625 7.832031 71.90625 17.570312 L 71.90625 54.238281 C 71.90625 63.980469 64.074219 71.808594 54.335938 71.808594 Z M 17.664062 5.730469 C 11.171875 5.730469 5.824219 11.078125 5.824219 17.570312 L 5.824219 54.238281 C 5.824219 60.730469 11.171875 66.078125 17.664062 66.078125 L 54.335938 66.078125 C 60.828125 66.078125 66.175781 60.730469 66.175781 54.238281 L 66.175781 17.570312 C 66.175781 11.078125 60.828125 5.730469 54.335938 5.730469 Z M 17.664062 5.730469 " fill-opacity="1" fill-rule="nonzero"/><path fill="#fb872c" d="M 36.191406 59.203125 C 23.585938 59.203125 13.464844 49.082031 13.464844 36.476562 C 13.464844 23.871094 23.585938 13.75 36.191406 13.75 C 48.796875 13.75 58.917969 23.871094 58.917969 36.476562 C 58.917969 49.082031 48.796875 59.203125 36.191406 59.203125 Z M 36.191406 19.289062 C 26.640625 19.289062 19.003906 26.929688 19.003906 36.476562 C 19.003906 46.027344 26.640625 53.664062 36.191406 53.664062 C 45.738281 53.664062 53.378906 46.027344 53.378906 36.476562 C 53.378906 26.929688 45.738281 19.289062 36.191406 19.289062 Z M 36.191406 19.289062 " fill-opacity="1" fill-rule="nonzero"/><path fill="#fb872c" d="M 36.191406 46.789062 C 30.460938 46.789062 25.878906 42.207031 25.878906 36.476562 C 25.878906 30.746094 30.460938 26.164062 36.191406 26.164062 C 41.921875 26.164062 46.503906 30.746094 46.503906 36.476562 C 46.503906 42.207031 41.921875 46.789062 36.191406 46.789062 Z M 36.191406 31.894531 C 33.707031 31.894531 31.609375 33.996094 31.609375 36.476562 C 31.609375 38.960938 33.707031 41.0625 36.191406 41.0625 C 38.671875 41.0625 40.773438 38.960938 40.773438 36.476562 C 40.773438 33.996094 38.671875 31.894531 36.191406 31.894531 Z M 36.191406 31.894531 " fill-opacity="1" fill-rule="nonzero"/><path fill="#fb872c" d="M 60.828125 15.085938 C 60.828125 15.59375 60.730469 16.082031 60.535156 16.550781 C 60.34375 17.015625 60.066406 17.429688 59.707031 17.789062 C 59.351562 18.148438 58.9375 18.421875 58.46875 18.617188 C 58 18.808594 57.515625 18.90625 57.007812 18.90625 C 56.5 18.90625 56.015625 18.808594 55.546875 18.617188 C 55.078125 18.421875 54.664062 18.148438 54.308594 17.789062 C 53.949219 17.429688 53.671875 17.015625 53.480469 16.550781 C 53.285156 16.082031 53.1875 15.59375 53.1875 15.085938 C 53.1875 14.582031 53.285156 14.09375 53.480469 13.625 C 53.671875 13.15625 53.949219 12.746094 54.308594 12.386719 C 54.664062 12.027344 55.078125 11.753906 55.546875 11.558594 C 56.015625 11.363281 56.5 11.269531 57.007812 11.269531 C 57.515625 11.269531 58 11.363281 58.46875 11.558594 C 58.9375 11.753906 59.351562 12.027344 59.707031 12.386719 C 60.066406 12.746094 60.34375 13.15625 60.535156 13.625 C 60.730469 14.09375 60.828125 14.582031 60.828125 15.085938 Z M 60.828125 15.085938 " fill-opacity="1" fill-rule="nonzero"/></svg>