<svg xmlns="http://www.w3.org/2000/svg" xmlns:xlink="http://www.w3.org/1999/xlink" width="96" zoomAndPan="magnify" viewBox="0 0 72 72" height="96" preserveAspectRatio="xMidYMid meet" version="1.0"><path fill="#fb872c" d="M 12.1875 0 L 59.808594 0 C 63.164062 0 66.210938 1.371094 68.417969 3.578125 C 70.628906 5.789062 72 8.835938 72 12.1875 L 72 59.808594 C 72 63.164062 70.628906 66.210938 68.417969 68.417969 C 66.210938 70.628906 63.164062 72 59.808594 72 L 12.1875 72 C 8.835938 72 5.789062 70.628906 3.578125 68.417969 C 1.371094 66.210938 0 63.164062 0 59.808594 L 0 12.1875 C 0 8.835938 1.371094 5.789062 3.578125 3.578125 C 5.789062 1.371094 8.835938 0 12.1875 0 Z M 59.808594 1.96875 L 12.1875 1.96875 C 9.378906 1.96875 6.824219 3.117188 4.972656 4.972656 C 3.117188 6.824219 1.96875 9.378906 1.96875 12.1875 L 1.96875 59.808594 C 1.96875 62.621094 3.117188 65.175781 4.972656 67.027344 C 6.824219 68.878906 9.378906 70.03125 12.1875 70.03125 L 59.808594 70.03125 C 62.621094 70.03125 65.175781 68.878906 67.027344 67.027344 C 68.878906 65.175781 70.03125 62.621094 70.03125 59.808594 L 70.03125 12.1875 C 70.03125 9.378906 68.878906 6.824219 67.027344 4.972656 C 65.175781 3.117188 62.621094 1.96875 59.808594 1.96875 Z M 59.808594 1.96875 " fill-opacity="1" fill-rule="nonzero"/><path fill="#fb872c" d="M 14.386719 4.429688 L 57.613281 4.429688 C 60.351562 4.429688 62.839844 5.550781 64.644531 7.355469 C 66.449219 9.160156 67.566406 11.648438 67.566406 14.386719 L 67.566406 57.613281 C 67.566406 60.351562 66.449219 62.839844 64.644531 64.644531 C 62.839844 66.449219 60.351562 67.566406 57.613281 67.566406 L 14.386719 67.566406 C 11.648438 67.566406 9.15625 66.449219 7.355469 64.644531 C 5.550781 62.839844 4.429688 60.351562 4.429688 57.613281 L 4.429688 14.386719 C 4.429688 11.648438 5.550781 9.15625 7.355469 7.355469 C 9.15625 5.550781 11.648438 4.429688 14.386719 4.429688 Z M 57.613281 6.398438 L 14.386719 6.398438 C 12.191406 6.398438 10.195312 7.296875 8.746094 8.746094 C 7.296875 10.195312 6.398438 12.191406 6.398438 14.386719 L 6.398438 57.613281 C 6.398438 59.808594 7.296875 61.804688 8.746094 63.253906 C 10.195312 64.699219 12.191406 65.597656 14.386719 65.597656 L 57.613281 65.597656 C 59.808594 65.597656 61.804688 64.699219 63.253906 63.253906 C 64.699219 61.804688 65.597656 59.808594 65.597656 57.613281 L 65.597656 14.386719 C 65.597656 12.191406 64.699219 10.195312 63.253906 8.746094 C 61.804688 7.296875 59.808594 6.398438 57.613281 6.398438 Z M 57.613281 6.398438 " fill-opacity="1" fill-rule="nonzero"/><path fill="#fb872c" d="M 15.847656 16.289062 L 28.632812 16.289062 C 28.980469 16.289062 29.289062 16.472656 29.464844 16.75 L 56.945312 54.144531 C 57.265625 54.582031 57.167969 55.195312 56.734375 55.515625 C 56.558594 55.644531 56.355469 55.707031 56.152344 55.707031 L 43.367188 55.707031 C 43.015625 55.707031 42.707031 55.527344 42.535156 55.25 L 15.054688 17.855469 C 14.734375 17.417969 14.828125 16.804688 15.265625 16.484375 C 15.441406 16.355469 15.644531 16.292969 15.847656 16.292969 Z M 28.136719 18.257812 L 17.789062 18.257812 L 43.859375 53.738281 L 54.210938 53.738281 Z M 28.136719 18.257812 " fill-opacity="1" fill-rule="nonzero"/><path fill="#fb872c" d="M 46.707031 16.289062 L 53.382812 16.289062 C 53.925781 16.289062 54.367188 16.730469 54.367188 17.273438 C 54.367188 17.535156 54.265625 17.769531 54.101562 17.945312 L 41.398438 34.203125 C 41.066406 34.628906 40.449219 34.703125 40.023438 34.371094 C 39.953125 34.3125 39.886719 34.25 39.835938 34.179688 L 36.601562 29.777344 C 36.324219 29.398438 36.355469 28.886719 36.652344 28.546875 L 45.933594 16.671875 C 46.125 16.421875 46.414062 16.292969 46.707031 16.292969 Z M 51.367188 18.257812 L 47.183594 18.257812 L 38.625 29.210938 L 40.652344 31.972656 Z M 34.777344 42.679688 L 24.894531 55.328125 C 24.703125 55.574219 24.414062 55.703125 24.121094 55.703125 L 24.121094 55.707031 L 17.445312 55.707031 C 16.902344 55.707031 16.460938 55.265625 16.460938 54.722656 C 16.460938 54.464844 16.5625 54.230469 16.726562 54.054688 L 30.03125 37.023438 C 30.363281 36.597656 30.980469 36.523438 31.40625 36.855469 C 31.480469 36.914062 31.542969 36.976562 31.59375 37.046875 L 34.832031 41.449219 C 35.109375 41.828125 35.074219 42.339844 34.777344 42.679688 Z M 23.644531 53.738281 L 32.808594 42.015625 L 30.777344 39.253906 L 19.460938 53.738281 L 23.648438 53.738281 Z M 23.644531 53.738281 " fill-opacity="1" fill-rule="nonzero"/></svg>