<svg xmlns="http://www.w3.org/2000/svg" shape-rendering="geometricPrecision" text-rendering="geometricPrecision" image-rendering="optimizeQuality" fill-rule="evenodd" clip-rule="evenodd" viewBox="0 0 488 511.72"><path fill="#4D4D4D" fill-rule="nonzero" d="M243.999 0c58.37 0 111.224 23.67 149.477 61.923s61.923 91.108 61.923 149.477-23.67 111.223-61.923 149.477c-38.253 38.252-91.107 61.922-149.477 61.922-58.363 0-111.223-23.67-149.476-61.922C56.269 322.623 32.6 269.763 32.6 211.4c0-58.369 23.669-111.224 61.923-149.477C132.776 23.67 185.63 0 243.999 0z"/><path fill="#fff" fill-rule="nonzero" d="M244 16.183c53.906 0 102.713 21.855 138.039 57.179 35.325 35.326 57.18 84.134 57.18 138.039 0 53.905-21.855 102.713-57.182 138.037-35.324 35.326-84.131 57.181-138.037 57.181-53.905 0-102.712-21.855-138.039-57.179-35.324-35.326-57.179-84.134-57.179-138.039 0-53.905 21.855-102.713 57.179-138.039C141.288 38.038 190.095 16.183 244 16.183z"/><path fill="#CF142B" fill-rule="nonzero" d="M412.59 270.774C388.112 340.281 321.879 390.105 244 390.105c-77.881 0-144.111-49.824-168.589-119.331H412.59z"/><path fill="#00247D" fill-rule="nonzero" d="M412.59 270.774H75.411c-6.544-18.579-10.115-38.557-10.115-59.373 0-21.217 3.703-41.562 10.49-60.444h336.429c6.784 18.882 10.49 39.227 10.49 60.444 0 20.816-3.572 40.794-10.115 59.373z"/><path fill="#FC0" fill-rule="nonzero" d="M412.215 150.957H75.786C100.564 82.009 166.519 32.696 244 32.696c77.479 0 143.437 49.313 168.215 118.261z"/><path fill="#fff" fill-rule="nonzero" d="M265.326 161.811l-5.109 9.605-10.714-1.889 7.557 7.827-5.11 9.61 9.783-4.771 7.557 7.826-1.516-10.771 9.783-4.77-10.717-1.89-1.514-10.777zm-46.613 28.208l1.514-10.771-9.781-4.77 10.714-1.89 1.517-10.777 5.107 9.605 10.717-1.889-7.56 7.829 5.11 9.608-9.781-4.771-7.557 7.826zm-30.195 14.244l-2.262-10.641-10.819-1.139 9.419-5.441-2.259-10.643 8.083 7.279 9.427-5.441-4.427 9.941 8.087 7.284-10.824-1.141-4.425 9.942zm-23.498 23.71l-5.766-9.23-10.56 2.633 6.996-8.335-5.767-9.229 10.092 4.078 6.992-8.335-.759 10.854 10.088 4.076-10.558 2.633-.758 10.855zm-13.976 30.317l-8.574-6.699-9.02 6.082 3.723-10.222-8.576-6.701 10.872.38 3.725-10.224 3.001 10.458 10.873.383-9.02 6.082 2.996 10.461zm179.889-16.543l10.873-.383 3.001-10.458 3.724 10.224 10.873-.38-8.576 6.699 3.723 10.224-9.02-6.082-8.574 6.699 2.996-10.459-9.02-6.084zm-19.268-27.262l10.09-4.076-.759-10.854 6.992 8.335 10.093-4.078-5.768 9.232 6.997 8.332-10.564-2.63-5.765 9.227-.758-10.855-10.558-2.633zm-27.431-19.023l8.089-7.284-4.43-9.941 9.427 5.441 8.086-7.279-2.261 10.643 9.422 5.441-10.822 1.139-2.262 10.641-4.425-9.942-10.824 1.141z"/><path fill="#4D4D4D" fill-rule="nonzero" d="M47.344 324.873H440.65c14.705 0 24.937 11.886 26.898 26.899L488 484.822c0 14.705-12.194 26.898-26.899 26.898H26.893C12.139 511.72 0 499.575 0 484.822l20.452-133.05c3.362-15.659 12.857-26.893 26.892-26.899z"/><path fill="#fff" d="M45.449 335.764h397.103c7.754 0 13.03 6.823 14.119 14.119l20.455 136.832c1.093 7.305-6.72 14.119-14.119 14.119H25.003c-7.399 0-15.268-6.433-14.119-14.119L31.33 349.883c1.149-7.685 6.378-14.119 14.119-14.119z"/><path fill="#333" fill-rule="nonzero" d="M160.795 400.147h-9.315v-38.335h11.404l6.21 20.482 6.209-20.482h11.406v38.335h-9.256v-24.361l-4.776 16.06h-7.165l-4.717-15.941v24.242zm50.215 0l-1.195-5.732h-9.196l-1.253 5.732h-10.27l9.851-38.335h12.718l9.854 38.335H211.01zm-8.779-13.135h5.972l-2.925-13.794-3.047 13.794zm22.274-25.2h17.613c5.851 0 8.779 2.469 8.779 7.406v23.525c0 4.937-2.928 7.404-8.779 7.404h-17.613v-38.335zm15.941 30.153v-21.972c0-.875-.497-1.314-1.492-1.314h-4v24.6h4c.995 0 1.492-.436 1.492-1.314zm25.497.717h13.077v7.465h-23.525v-38.335h22.988v7.465h-12.54v7.822h10.807v7.463h-10.807v8.12zm28.303-30.87h10.449v38.335h-10.449v-38.335zm32.721 0h9.554v38.335h-8.957l-8.537-20.122v20.122h-9.554v-38.335h8.957l8.537 20.482v-20.482z"/><path fill="#00247D" fill-rule="nonzero" d="M90.361 421.112h15.218l-13.211 53.681H75.393l-13.21-53.681h15.219l6.438 35.87 6.521-35.87zm33.779 43.23h18.313v10.451h-32.945v-53.681H141.7v10.451h-17.56v10.956h15.134v10.45H124.14v11.373zm47.411-43.23h13.376v53.681h-12.54l-11.957-28.179v28.179h-13.379v-53.681h12.542l11.958 28.681v-28.681zm34.697 43.23h18.313v10.451h-32.945v-53.681h32.192v10.451h-17.56v10.956h15.134v10.45h-15.134v11.373zm56.692-43.23v10.451l-20.151 32.779h19.566v10.451h-34.869v-10.451l20.152-32.779h-19.064v-10.451h34.366zm27.342 0h14.632v43.313c0 6.911-4.098 10.368-12.291 10.368h-12.375c-8.193 0-12.291-3.457-12.291-10.368v-43.313h14.632v41.389c0 1.227.697 1.841 2.091 1.841h3.511c1.394 0 2.091-.614 2.091-1.841v-41.389zm35.953 43.23h18.313v10.451h-32.945v-53.681h32.192v10.451h-17.56v10.956h15.134v10.45h-15.134v11.373zm37.543 0h16.64v10.451h-31.272v-53.681h14.632v43.23zm47.328 10.451l-1.673-8.028h-12.876l-1.758 8.028h-14.381l13.796-53.681h17.811l13.795 53.681h-14.714zm-12.292-18.396h8.362l-4.098-19.315-4.264 19.315z"/></svg>