<svg xmlns="http://www.w3.org/2000/svg" xmlns:xlink="http://www.w3.org/1999/xlink" width="200" zoomAndPan="magnify" viewBox="0 0 150 56.249996" height="75" preserveAspectRatio="xMidYMid meet" version="1.0"><defs><g/><clipPath id="503b481232"><path d="M 32.945312 1.058594 L 116.964844 1.058594 L 116.964844 26.152344 L 32.945312 26.152344 Z M 32.945312 1.058594 " clip-rule="nonzero"/></clipPath></defs><path fill="#ffffff" d="M 91.394531 11.183594 C 93.191406 11.183594 94.644531 12.636719 94.644531 14.433594 C 94.644531 16.226562 93.191406 17.679688 91.394531 17.679688 C 89.601562 17.679688 88.148438 16.226562 88.148438 14.433594 C 88.148438 12.636719 89.601562 11.183594 91.394531 11.183594 " fill-opacity="1" fill-rule="nonzero"/><path fill="#ffffff" d="M 58.359375 11.183594 C 60.152344 11.183594 61.609375 12.636719 61.609375 14.433594 C 61.609375 16.226562 60.152344 17.679688 58.359375 17.679688 C 56.566406 17.679688 55.113281 16.226562 55.113281 14.433594 C 55.113281 12.636719 56.566406 11.183594 58.359375 11.183594 " fill-opacity="1" fill-rule="nonzero"/><g clip-path="url(#503b481232)"><path fill="#ffffff" d="M 51.910156 8.78125 L 54.835938 8.78125 L 56.226562 7.195312 L 58.425781 7.195312 L 60.738281 9.894531 L 52.363281 9.894531 Z M 61.445312 9.894531 L 59.230469 7.195312 L 60.402344 7.195312 L 61.980469 8.769531 L 61.980469 9.894531 Z M 64.855469 15.082031 C 64.855469 9.542969 69.34375 5.054688 74.878906 5.054688 C 80.414062 5.054688 84.902344 9.542969 84.902344 15.082031 C 84.902344 20.617188 80.414062 25.105469 74.878906 25.105469 C 69.34375 25.105469 64.855469 20.617188 64.855469 15.082031 Z M 87.777344 8.769531 L 89.355469 7.195312 L 90.527344 7.195312 L 88.3125 9.894531 L 87.777344 9.894531 Z M 89.019531 9.894531 L 91.332031 7.195312 L 93.53125 7.195312 L 94.921875 8.78125 L 97.847656 8.78125 L 97.394531 9.894531 Z M 32.980469 3.71875 C 32.980469 4.691406 33.765625 5.476562 34.738281 5.476562 L 48.292969 5.476562 C 45.300781 6.589844 38.792969 6.449219 36.738281 6.484375 C 34.683594 6.519531 35 8.746094 36.007812 8.78125 C 37.015625 8.816406 37.433594 7.808594 37.433594 7.808594 L 49.160156 7.007812 L 51.457031 10.628906 L 61.980469 10.628906 L 61.980469 25.382812 L 66.527344 25.382812 L 67.21875 23.152344 C 69.214844 25.046875 71.90625 26.21875 74.878906 26.21875 C 77.847656 26.21875 80.539062 25.046875 82.539062 23.152344 L 83.230469 25.382812 L 87.777344 25.382812 L 87.777344 10.628906 L 98.296875 10.628906 L 100.59375 7.007812 L 112.320312 7.808594 C 112.320312 7.808594 112.738281 8.816406 113.75 8.78125 C 114.757812 8.746094 115.070312 6.519531 113.019531 6.484375 C 110.964844 6.449219 104.457031 6.589844 101.464844 5.476562 L 115.019531 5.476562 C 115.988281 5.476562 116.777344 4.691406 116.777344 3.71875 C 116.777344 2.75 115.988281 1.960938 115.019531 1.960938 L 101.011719 1.960938 L 100.105469 1.058594 L 93.53125 1.058594 L 91.460938 3.128906 L 88.277344 3.128906 L 84.296875 7.007812 L 82.535156 7.007812 C 80.539062 5.113281 77.847656 3.945312 74.878906 3.945312 C 71.910156 3.945312 69.21875 5.113281 67.222656 7.007812 L 65.460938 7.007812 L 61.480469 3.128906 L 58.296875 3.128906 L 56.226562 1.058594 L 49.648438 1.058594 L 48.746094 1.960938 L 34.738281 1.960938 C 33.765625 1.960938 32.980469 2.75 32.980469 3.71875 " fill-opacity="1" fill-rule="nonzero"/></g><path fill="#ffffff" d="M 81.285156 15.082031 C 81.285156 11.292969 78.296875 8.214844 74.554688 8.042969 C 74.660156 8.039062 74.769531 8.027344 74.878906 8.027344 C 78.773438 8.027344 81.933594 11.183594 81.933594 15.082031 C 81.933594 18.976562 78.773438 22.136719 74.878906 22.136719 C 74.769531 22.136719 74.660156 22.125 74.554688 22.121094 C 78.296875 21.949219 81.285156 18.867188 81.285156 15.082031 Z M 65.898438 15.082031 C 65.898438 20.042969 69.917969 24.0625 74.878906 24.0625 C 79.839844 24.0625 83.859375 20.042969 83.859375 15.082031 C 83.859375 10.121094 79.839844 6.101562 74.878906 6.101562 C 69.917969 6.101562 65.898438 10.121094 65.898438 15.082031 " fill-opacity="1" fill-rule="nonzero"/><g fill="#ffffff" fill-opacity="1"><g transform="translate(29.393195, 44.258267)"><g><path d="M 13.078125 -11.15625 L 10.609375 -11.15625 L 10.1875 -13.40625 C 9.894531 -13.582031 9.472656 -13.738281 8.921875 -13.875 C 8.378906 -14.007812 7.800781 -14.078125 7.1875 -14.078125 C 6.289062 -14.078125 5.59375 -13.882812 5.09375 -13.5 C 4.601562 -13.125 4.359375 -12.640625 4.359375 -12.046875 C 4.359375 -11.484375 4.613281 -11.023438 5.125 -10.671875 C 5.644531 -10.316406 6.535156 -9.941406 7.796875 -9.546875 C 9.609375 -9.035156 10.976562 -8.367188 11.90625 -7.546875 C 12.84375 -6.722656 13.3125 -5.640625 13.3125 -4.296875 C 13.3125 -2.890625 12.753906 -1.78125 11.640625 -0.96875 C 10.535156 -0.164062 9.078125 0.234375 7.265625 0.234375 C 5.960938 0.234375 4.785156 0.03125 3.734375 -0.375 C 2.691406 -0.789062 1.820312 -1.363281 1.125 -2.09375 L 1.125 -5.515625 L 3.671875 -5.515625 L 4.015625 -3.1875 C 4.347656 -2.914062 4.796875 -2.691406 5.359375 -2.515625 C 5.929688 -2.335938 6.566406 -2.25 7.265625 -2.25 C 8.160156 -2.25 8.84375 -2.429688 9.3125 -2.796875 C 9.78125 -3.171875 10.015625 -3.664062 10.015625 -4.28125 C 10.015625 -4.90625 9.789062 -5.410156 9.34375 -5.796875 C 8.894531 -6.179688 8.113281 -6.539062 7 -6.875 C 5.050781 -7.4375 3.578125 -8.101562 2.578125 -8.875 C 1.585938 -9.644531 1.09375 -10.703125 1.09375 -12.046875 C 1.09375 -13.378906 1.65625 -14.46875 2.78125 -15.3125 C 3.90625 -16.15625 5.316406 -16.585938 7.015625 -16.609375 C 8.273438 -16.609375 9.421875 -16.414062 10.453125 -16.03125 C 11.492188 -15.65625 12.367188 -15.144531 13.078125 -14.5 Z M 13.078125 -11.15625 "/></g></g></g><g fill="#ffffff" fill-opacity="1"><g transform="translate(43.370685, 44.258267)"><g><path d="M 14.0625 -10.859375 L 11.609375 -10.859375 L 11.28125 -13.046875 C 10.957031 -13.367188 10.546875 -13.625 10.046875 -13.8125 C 9.554688 -14 8.976562 -14.09375 8.3125 -14.09375 C 6.882812 -14.09375 5.785156 -13.570312 5.015625 -12.53125 C 4.253906 -11.5 3.875 -10.148438 3.875 -8.484375 L 3.875 -7.90625 C 3.875 -6.238281 4.253906 -4.882812 5.015625 -3.84375 C 5.785156 -2.800781 6.867188 -2.28125 8.265625 -2.28125 C 8.910156 -2.28125 9.5 -2.375 10.03125 -2.5625 C 10.570312 -2.75 10.988281 -3.003906 11.28125 -3.328125 L 11.609375 -5.515625 L 14.0625 -5.515625 L 14.0625 -2.265625 C 13.394531 -1.503906 12.550781 -0.894531 11.53125 -0.4375 C 10.507812 0.0078125 9.363281 0.234375 8.09375 0.234375 C 5.894531 0.234375 4.09375 -0.523438 2.6875 -2.046875 C 1.28125 -3.566406 0.578125 -5.519531 0.578125 -7.90625 L 0.578125 -8.46875 C 0.578125 -10.84375 1.273438 -12.796875 2.671875 -14.328125 C 4.066406 -15.859375 5.875 -16.625 8.09375 -16.625 C 9.363281 -16.625 10.503906 -16.390625 11.515625 -15.921875 C 12.535156 -15.460938 13.382812 -14.851562 14.0625 -14.09375 Z M 14.0625 -10.859375 "/></g></g></g><g fill="#ffffff" fill-opacity="1"><g transform="translate(58.304767, 44.258267)"><g><path d="M 15.609375 -8.0625 C 15.609375 -5.664062 14.921875 -3.679688 13.546875 -2.109375 C 12.171875 -0.546875 10.375 0.234375 8.15625 0.234375 C 5.945312 0.234375 4.160156 -0.546875 2.796875 -2.109375 C 1.429688 -3.679688 0.75 -5.664062 0.75 -8.0625 L 0.75 -8.3125 C 0.75 -10.695312 1.425781 -12.675781 2.78125 -14.25 C 4.144531 -15.832031 5.929688 -16.625 8.140625 -16.625 C 10.367188 -16.625 12.171875 -15.832031 13.546875 -14.25 C 14.921875 -12.675781 15.609375 -10.695312 15.609375 -8.3125 Z M 12.328125 -8.34375 C 12.328125 -10.03125 11.972656 -11.40625 11.265625 -12.46875 C 10.566406 -13.53125 9.523438 -14.0625 8.140625 -14.0625 C 6.765625 -14.0625 5.738281 -13.535156 5.0625 -12.484375 C 4.382812 -11.429688 4.046875 -10.050781 4.046875 -8.34375 L 4.046875 -8.0625 C 4.046875 -6.34375 4.382812 -4.953125 5.0625 -3.890625 C 5.75 -2.835938 6.78125 -2.3125 8.15625 -2.3125 C 9.539062 -2.3125 10.582031 -2.835938 11.28125 -3.890625 C 11.976562 -4.953125 12.328125 -6.34375 12.328125 -8.0625 Z M 12.328125 -8.34375 "/></g></g></g><g fill="#ffffff" fill-opacity="1"><g transform="translate(74.600585, 44.258267)"><g><path d="M 15.609375 -8.0625 C 15.609375 -5.664062 14.921875 -3.679688 13.546875 -2.109375 C 12.171875 -0.546875 10.375 0.234375 8.15625 0.234375 C 5.945312 0.234375 4.160156 -0.546875 2.796875 -2.109375 C 1.429688 -3.679688 0.75 -5.664062 0.75 -8.0625 L 0.75 -8.3125 C 0.75 -10.695312 1.425781 -12.675781 2.78125 -14.25 C 4.144531 -15.832031 5.929688 -16.625 8.140625 -16.625 C 10.367188 -16.625 12.171875 -15.832031 13.546875 -14.25 C 14.921875 -12.675781 15.609375 -10.695312 15.609375 -8.3125 Z M 12.328125 -8.34375 C 12.328125 -10.03125 11.972656 -11.40625 11.265625 -12.46875 C 10.566406 -13.53125 9.523438 -14.0625 8.140625 -14.0625 C 6.765625 -14.0625 5.738281 -13.535156 5.0625 -12.484375 C 4.382812 -11.429688 4.046875 -10.050781 4.046875 -8.34375 L 4.046875 -8.0625 C 4.046875 -6.34375 4.382812 -4.953125 5.0625 -3.890625 C 5.75 -2.835938 6.78125 -2.3125 8.15625 -2.3125 C 9.539062 -2.3125 10.582031 -2.835938 11.28125 -3.890625 C 11.976562 -4.953125 12.328125 -6.34375 12.328125 -8.0625 Z M 12.328125 -8.34375 "/></g></g></g><g fill="#ffffff" fill-opacity="1"><g transform="translate(90.896404, 44.258267)"><g><path d="M 15.0625 -16.390625 L 15.0625 -12.015625 L 12.53125 -12.015625 L 12.40625 -13.859375 L 9.390625 -13.859375 L 9.390625 -2.3125 L 11.140625 -1.96875 L 11.140625 0 L 4.34375 0 L 4.34375 -1.96875 L 6.09375 -2.3125 L 6.09375 -13.859375 L 3.09375 -13.859375 L 2.953125 -12.015625 L 0.453125 -12.015625 L 0.453125 -16.390625 Z M 15.0625 -16.390625 "/></g></g></g><g fill="#ffffff" fill-opacity="1"><g transform="translate(106.393187, 44.258267)"><g><path d="M 13.078125 -11.15625 L 10.609375 -11.15625 L 10.1875 -13.40625 C 9.894531 -13.582031 9.472656 -13.738281 8.921875 -13.875 C 8.378906 -14.007812 7.800781 -14.078125 7.1875 -14.078125 C 6.289062 -14.078125 5.59375 -13.882812 5.09375 -13.5 C 4.601562 -13.125 4.359375 -12.640625 4.359375 -12.046875 C 4.359375 -11.484375 4.613281 -11.023438 5.125 -10.671875 C 5.644531 -10.316406 6.535156 -9.941406 7.796875 -9.546875 C 9.609375 -9.035156 10.976562 -8.367188 11.90625 -7.546875 C 12.84375 -6.722656 13.3125 -5.640625 13.3125 -4.296875 C 13.3125 -2.890625 12.753906 -1.78125 11.640625 -0.96875 C 10.535156 -0.164062 9.078125 0.234375 7.265625 0.234375 C 5.960938 0.234375 4.785156 0.03125 3.734375 -0.375 C 2.691406 -0.789062 1.820312 -1.363281 1.125 -2.09375 L 1.125 -5.515625 L 3.671875 -5.515625 L 4.015625 -3.1875 C 4.347656 -2.914062 4.796875 -2.691406 5.359375 -2.515625 C 5.929688 -2.335938 6.566406 -2.25 7.265625 -2.25 C 8.160156 -2.25 8.84375 -2.429688 9.3125 -2.796875 C 9.78125 -3.171875 10.015625 -3.664062 10.015625 -4.28125 C 10.015625 -4.90625 9.789062 -5.410156 9.34375 -5.796875 C 8.894531 -6.179688 8.113281 -6.539062 7 -6.875 C 5.050781 -7.4375 3.578125 -8.101562 2.578125 -8.875 C 1.585938 -9.644531 1.09375 -10.703125 1.09375 -12.046875 C 1.09375 -13.378906 1.65625 -14.46875 2.78125 -15.3125 C 3.90625 -16.15625 5.316406 -16.585938 7.015625 -16.609375 C 8.273438 -16.609375 9.421875 -16.414062 10.453125 -16.03125 C 11.492188 -15.65625 12.367188 -15.144531 13.078125 -14.5 Z M 13.078125 -11.15625 "/></g></g></g><g fill="#ffffff" fill-opacity="0.4"><g transform="translate(49.110983, 53.020586)"><g><path d="M 0.125 -0.515625 L 0.4375 -0.5625 L 1.75 -4.328125 L 2.625 -4.328125 L 3.9375 -0.5625 L 4.25 -0.515625 L 4.25 0 L 2.78125 0 L 2.78125 -0.515625 L 3.078125 -0.578125 L 2.890625 -1.171875 L 1.484375 -1.171875 L 1.296875 -0.578125 L 1.59375 -0.515625 L 1.59375 0 L 0.125 0 Z M 1.6875 -1.796875 L 2.6875 -1.796875 L 2.1875 -3.328125 L 2.171875 -3.328125 Z M 1.6875 -1.796875 "/></g></g></g><g fill="#ffffff" fill-opacity="0.4"><g transform="translate(55.207534, 53.020586)"><g><path d="M 2.109375 -4.328125 C 2.640625 -4.328125 3.070312 -4.15625 3.40625 -3.8125 C 3.75 -3.476562 3.921875 -3.046875 3.921875 -2.515625 L 3.921875 -1.796875 C 3.921875 -1.265625 3.75 -0.832031 3.40625 -0.5 C 3.070312 -0.164062 2.640625 0 2.109375 0 L 0.171875 0 L 0.171875 -0.515625 L 0.625 -0.609375 L 0.625 -3.703125 L 0.171875 -3.796875 L 0.171875 -4.328125 Z M 1.5 -3.65625 L 1.5 -0.671875 L 2.0625 -0.671875 C 2.375 -0.671875 2.617188 -0.773438 2.796875 -0.984375 C 2.972656 -1.191406 3.0625 -1.460938 3.0625 -1.796875 L 3.0625 -2.515625 C 3.0625 -2.859375 2.972656 -3.132812 2.796875 -3.34375 C 2.617188 -3.550781 2.375 -3.65625 2.0625 -3.65625 Z M 1.5 -3.65625 "/></g></g></g><g fill="#ffffff" fill-opacity="0.4"><g transform="translate(61.125878, 53.020586)"><g><path d="M 1.6875 -3.796875 L 1.34375 -3.734375 L 2.109375 -1.15625 L 2.171875 -0.90625 L 2.1875 -0.90625 L 2.234375 -1.140625 L 3 -3.734375 L 2.6875 -3.796875 L 2.6875 -4.328125 L 4.265625 -4.328125 L 4.265625 -3.796875 L 3.890625 -3.75 L 2.625 0 L 1.734375 0 L 0.453125 -3.75 L 0.09375 -3.796875 L 0.09375 -4.328125 L 1.6875 -4.328125 Z M 1.6875 -3.796875 "/></g></g></g><g fill="#ffffff" fill-opacity="0.4"><g transform="translate(67.213518, 53.020586)"><g><path d="M 2.953125 -1.90625 L 1.5 -1.90625 L 1.5 -0.671875 L 2.890625 -0.671875 L 2.921875 -1.1875 L 3.578125 -1.1875 L 3.578125 0 L 0.171875 0 L 0.171875 -0.515625 L 0.625 -0.609375 L 0.625 -3.703125 L 0.171875 -3.796875 L 0.171875 -4.328125 L 3.578125 -4.328125 L 3.578125 -3.140625 L 2.921875 -3.140625 L 2.875 -3.65625 L 1.5 -3.65625 L 1.5 -2.5625 L 2.953125 -2.5625 Z M 2.953125 -1.90625 "/></g></g></g><g fill="#ffffff" fill-opacity="0.4"><g transform="translate(72.825941, 53.020586)"><g><path d="M 4.578125 -4.328125 L 4.578125 -3.796875 L 4.125 -3.703125 L 4.125 0 L 3.25 0 L 1.515625 -2.90625 L 1.5 -2.90625 L 1.5 -0.609375 L 1.953125 -0.515625 L 1.953125 0 L 0.171875 0 L 0.171875 -0.515625 L 0.625 -0.609375 L 0.625 -3.703125 L 0.171875 -3.796875 L 0.171875 -4.328125 L 1.5 -4.328125 L 3.234375 -1.40625 L 3.25 -1.421875 L 3.25 -3.703125 L 2.796875 -3.796875 L 2.796875 -4.328125 Z M 4.578125 -4.328125 "/></g></g></g><g fill="#ffffff" fill-opacity="0.4"><g transform="translate(79.252174, 53.020586)"><g><path d="M 3.96875 -4.328125 L 3.96875 -3.171875 L 3.3125 -3.171875 L 3.265625 -3.65625 L 2.46875 -3.65625 L 2.46875 -0.609375 L 2.9375 -0.515625 L 2.9375 0 L 1.140625 0 L 1.140625 -0.515625 L 1.609375 -0.609375 L 1.609375 -3.65625 L 0.8125 -3.65625 L 0.78125 -3.171875 L 0.125 -3.171875 L 0.125 -4.328125 Z M 3.96875 -4.328125 "/></g></g></g><g fill="#ffffff" fill-opacity="0.4"><g transform="translate(85.069533, 53.020586)"><g><path d="M 1.90625 -4.328125 L 1.90625 -3.796875 L 1.4375 -3.703125 L 1.4375 -1.453125 C 1.4375 -1.171875 1.515625 -0.957031 1.671875 -0.8125 C 1.828125 -0.675781 2.035156 -0.609375 2.296875 -0.609375 C 2.566406 -0.609375 2.78125 -0.675781 2.9375 -0.8125 C 3.09375 -0.957031 3.171875 -1.171875 3.171875 -1.453125 L 3.171875 -3.703125 L 2.71875 -3.796875 L 2.71875 -4.328125 L 4.5 -4.328125 L 4.5 -3.796875 L 4.046875 -3.703125 L 4.046875 -1.453125 C 4.046875 -0.972656 3.882812 -0.597656 3.5625 -0.328125 C 3.238281 -0.0664062 2.816406 0.0625 2.296875 0.0625 C 1.785156 0.0625 1.367188 -0.0664062 1.046875 -0.328125 C 0.734375 -0.597656 0.578125 -0.972656 0.578125 -1.453125 L 0.578125 -3.703125 L 0.109375 -3.796875 L 0.109375 -4.328125 Z M 1.90625 -4.328125 "/></g></g></g><g fill="#ffffff" fill-opacity="0.4"><g transform="translate(91.391811, 53.020586)"><g><path d="M 2.109375 -4.328125 C 2.597656 -4.328125 2.984375 -4.210938 3.265625 -3.984375 C 3.546875 -3.753906 3.6875 -3.441406 3.6875 -3.046875 C 3.6875 -2.835938 3.625 -2.648438 3.5 -2.484375 C 3.382812 -2.328125 3.210938 -2.195312 2.984375 -2.09375 C 3.242188 -2.019531 3.425781 -1.894531 3.53125 -1.71875 C 3.644531 -1.539062 3.703125 -1.328125 3.703125 -1.078125 L 3.703125 -0.859375 C 3.703125 -0.753906 3.722656 -0.675781 3.765625 -0.625 C 3.804688 -0.570312 3.867188 -0.539062 3.953125 -0.53125 L 4.0625 -0.515625 L 4.0625 0 L 3.609375 0 C 3.328125 0 3.128906 -0.0703125 3.015625 -0.21875 C 2.898438 -0.375 2.84375 -0.570312 2.84375 -0.8125 L 2.84375 -1.0625 C 2.84375 -1.269531 2.785156 -1.429688 2.671875 -1.546875 C 2.566406 -1.671875 2.410156 -1.738281 2.203125 -1.75 L 1.5 -1.75 L 1.5 -0.609375 L 1.953125 -0.515625 L 1.953125 0 L 0.171875 0 L 0.171875 -0.515625 L 0.625 -0.609375 L 0.625 -3.703125 L 0.171875 -3.796875 L 0.171875 -4.328125 Z M 1.5 -2.421875 L 2.09375 -2.421875 C 2.332031 -2.421875 2.507812 -2.46875 2.625 -2.5625 C 2.75 -2.664062 2.8125 -2.816406 2.8125 -3.015625 C 2.8125 -3.210938 2.75 -3.367188 2.625 -3.484375 C 2.507812 -3.597656 2.335938 -3.65625 2.109375 -3.65625 L 1.5 -3.65625 Z M 1.5 -2.421875 "/></g></g></g><g fill="#ffffff" fill-opacity="0.4"><g transform="translate(97.301243, 53.020586)"><g><path d="M 2.953125 -1.90625 L 1.5 -1.90625 L 1.5 -0.671875 L 2.890625 -0.671875 L 2.921875 -1.1875 L 3.578125 -1.1875 L 3.578125 0 L 0.171875 0 L 0.171875 -0.515625 L 0.625 -0.609375 L 0.625 -3.703125 L 0.171875 -3.796875 L 0.171875 -4.328125 L 3.578125 -4.328125 L 3.578125 -3.140625 L 2.921875 -3.140625 L 2.875 -3.65625 L 1.5 -3.65625 L 1.5 -2.5625 L 2.953125 -2.5625 Z M 2.953125 -1.90625 "/></g></g></g><g fill="#ffffff" fill-opacity="1"><g transform="translate(48.842159, 52.751761)"><g><path d="M 0.125 -0.515625 L 0.4375 -0.5625 L 1.75 -4.328125 L 2.625 -4.328125 L 3.9375 -0.5625 L 4.25 -0.515625 L 4.25 0 L 2.78125 0 L 2.78125 -0.515625 L 3.078125 -0.578125 L 2.890625 -1.171875 L 1.484375 -1.171875 L 1.296875 -0.578125 L 1.59375 -0.515625 L 1.59375 0 L 0.125 0 Z M 1.6875 -1.796875 L 2.6875 -1.796875 L 2.1875 -3.328125 L 2.171875 -3.328125 Z M 1.6875 -1.796875 "/></g></g></g><g fill="#ffffff" fill-opacity="1"><g transform="translate(54.93871, 52.751761)"><g><path d="M 2.109375 -4.328125 C 2.640625 -4.328125 3.070312 -4.15625 3.40625 -3.8125 C 3.75 -3.476562 3.921875 -3.046875 3.921875 -2.515625 L 3.921875 -1.796875 C 3.921875 -1.265625 3.75 -0.832031 3.40625 -0.5 C 3.070312 -0.164062 2.640625 0 2.109375 0 L 0.171875 0 L 0.171875 -0.515625 L 0.625 -0.609375 L 0.625 -3.703125 L 0.171875 -3.796875 L 0.171875 -4.328125 Z M 1.5 -3.65625 L 1.5 -0.671875 L 2.0625 -0.671875 C 2.375 -0.671875 2.617188 -0.773438 2.796875 -0.984375 C 2.972656 -1.191406 3.0625 -1.460938 3.0625 -1.796875 L 3.0625 -2.515625 C 3.0625 -2.859375 2.972656 -3.132812 2.796875 -3.34375 C 2.617188 -3.550781 2.375 -3.65625 2.0625 -3.65625 Z M 1.5 -3.65625 "/></g></g></g><g fill="#ffffff" fill-opacity="1"><g transform="translate(60.857054, 52.751761)"><g><path d="M 1.6875 -3.796875 L 1.34375 -3.734375 L 2.109375 -1.15625 L 2.171875 -0.90625 L 2.1875 -0.90625 L 2.234375 -1.140625 L 3 -3.734375 L 2.6875 -3.796875 L 2.6875 -4.328125 L 4.265625 -4.328125 L 4.265625 -3.796875 L 3.890625 -3.75 L 2.625 0 L 1.734375 0 L 0.453125 -3.75 L 0.09375 -3.796875 L 0.09375 -4.328125 L 1.6875 -4.328125 Z M 1.6875 -3.796875 "/></g></g></g><g fill="#ffffff" fill-opacity="1"><g transform="translate(66.944694, 52.751761)"><g><path d="M 2.953125 -1.90625 L 1.5 -1.90625 L 1.5 -0.671875 L 2.890625 -0.671875 L 2.921875 -1.1875 L 3.578125 -1.1875 L 3.578125 0 L 0.171875 0 L 0.171875 -0.515625 L 0.625 -0.609375 L 0.625 -3.703125 L 0.171875 -3.796875 L 0.171875 -4.328125 L 3.578125 -4.328125 L 3.578125 -3.140625 L 2.921875 -3.140625 L 2.875 -3.65625 L 1.5 -3.65625 L 1.5 -2.5625 L 2.953125 -2.5625 Z M 2.953125 -1.90625 "/></g></g></g><g fill="#ffffff" fill-opacity="1"><g transform="translate(72.557117, 52.751761)"><g><path d="M 4.578125 -4.328125 L 4.578125 -3.796875 L 4.125 -3.703125 L 4.125 0 L 3.25 0 L 1.515625 -2.90625 L 1.5 -2.90625 L 1.5 -0.609375 L 1.953125 -0.515625 L 1.953125 0 L 0.171875 0 L 0.171875 -0.515625 L 0.625 -0.609375 L 0.625 -3.703125 L 0.171875 -3.796875 L 0.171875 -4.328125 L 1.5 -4.328125 L 3.234375 -1.40625 L 3.25 -1.421875 L 3.25 -3.703125 L 2.796875 -3.796875 L 2.796875 -4.328125 Z M 4.578125 -4.328125 "/></g></g></g><g fill="#ffffff" fill-opacity="1"><g transform="translate(78.983351, 52.751761)"><g><path d="M 3.96875 -4.328125 L 3.96875 -3.171875 L 3.3125 -3.171875 L 3.265625 -3.65625 L 2.46875 -3.65625 L 2.46875 -0.609375 L 2.9375 -0.515625 L 2.9375 0 L 1.140625 0 L 1.140625 -0.515625 L 1.609375 -0.609375 L 1.609375 -3.65625 L 0.8125 -3.65625 L 0.78125 -3.171875 L 0.125 -3.171875 L 0.125 -4.328125 Z M 3.96875 -4.328125 "/></g></g></g><g fill="#ffffff" fill-opacity="1"><g transform="translate(84.800709, 52.751761)"><g><path d="M 1.90625 -4.328125 L 1.90625 -3.796875 L 1.4375 -3.703125 L 1.4375 -1.453125 C 1.4375 -1.171875 1.515625 -0.957031 1.671875 -0.8125 C 1.828125 -0.675781 2.035156 -0.609375 2.296875 -0.609375 C 2.566406 -0.609375 2.78125 -0.675781 2.9375 -0.8125 C 3.09375 -0.957031 3.171875 -1.171875 3.171875 -1.453125 L 3.171875 -3.703125 L 2.71875 -3.796875 L 2.71875 -4.328125 L 4.5 -4.328125 L 4.5 -3.796875 L 4.046875 -3.703125 L 4.046875 -1.453125 C 4.046875 -0.972656 3.882812 -0.597656 3.5625 -0.328125 C 3.238281 -0.0664062 2.816406 0.0625 2.296875 0.0625 C 1.785156 0.0625 1.367188 -0.0664062 1.046875 -0.328125 C 0.734375 -0.597656 0.578125 -0.972656 0.578125 -1.453125 L 0.578125 -3.703125 L 0.109375 -3.796875 L 0.109375 -4.328125 Z M 1.90625 -4.328125 "/></g></g></g><g fill="#ffffff" fill-opacity="1"><g transform="translate(91.122987, 52.751761)"><g><path d="M 2.109375 -4.328125 C 2.597656 -4.328125 2.984375 -4.210938 3.265625 -3.984375 C 3.546875 -3.753906 3.6875 -3.441406 3.6875 -3.046875 C 3.6875 -2.835938 3.625 -2.648438 3.5 -2.484375 C 3.382812 -2.328125 3.210938 -2.195312 2.984375 -2.09375 C 3.242188 -2.019531 3.425781 -1.894531 3.53125 -1.71875 C 3.644531 -1.539062 3.703125 -1.328125 3.703125 -1.078125 L 3.703125 -0.859375 C 3.703125 -0.753906 3.722656 -0.675781 3.765625 -0.625 C 3.804688 -0.570312 3.867188 -0.539062 3.953125 -0.53125 L 4.0625 -0.515625 L 4.0625 0 L 3.609375 0 C 3.328125 0 3.128906 -0.0703125 3.015625 -0.21875 C 2.898438 -0.375 2.84375 -0.570312 2.84375 -0.8125 L 2.84375 -1.0625 C 2.84375 -1.269531 2.785156 -1.429688 2.671875 -1.546875 C 2.566406 -1.671875 2.410156 -1.738281 2.203125 -1.75 L 1.5 -1.75 L 1.5 -0.609375 L 1.953125 -0.515625 L 1.953125 0 L 0.171875 0 L 0.171875 -0.515625 L 0.625 -0.609375 L 0.625 -3.703125 L 0.171875 -3.796875 L 0.171875 -4.328125 Z M 1.5 -2.421875 L 2.09375 -2.421875 C 2.332031 -2.421875 2.507812 -2.46875 2.625 -2.5625 C 2.75 -2.664062 2.8125 -2.816406 2.8125 -3.015625 C 2.8125 -3.210938 2.75 -3.367188 2.625 -3.484375 C 2.507812 -3.597656 2.335938 -3.65625 2.109375 -3.65625 L 1.5 -3.65625 Z M 1.5 -2.421875 "/></g></g></g><g fill="#ffffff" fill-opacity="1"><g transform="translate(97.032419, 52.751761)"><g><path d="M 2.953125 -1.90625 L 1.5 -1.90625 L 1.5 -0.671875 L 2.890625 -0.671875 L 2.921875 -1.1875 L 3.578125 -1.1875 L 3.578125 0 L 0.171875 0 L 0.171875 -0.515625 L 0.625 -0.609375 L 0.625 -3.703125 L 0.171875 -3.796875 L 0.171875 -4.328125 L 3.578125 -4.328125 L 3.578125 -3.140625 L 2.921875 -3.140625 L 2.875 -3.65625 L 1.5 -3.65625 L 1.5 -2.5625 L 2.953125 -2.5625 Z M 2.953125 -1.90625 "/></g></g></g><path stroke-linecap="butt" transform="matrix(0.380177, -0.00000000000000099, 0.00000000000000099, 0.380177, 16.091204, 50.534102)" fill="none" stroke-linejoin="miter" d="M -0.00357872 0.99943 L 44.506942 0.99943 " stroke="#ffffff" stroke-width="2" stroke-opacity="1" stroke-miterlimit="4"/><path stroke-linecap="butt" transform="matrix(0.380177, -0.00000000000000099, 0.00000000000000099, 0.380177, 116.290394, 50.534102)" fill="none" stroke-linejoin="miter" d="M -0.00350178 0.99943 L 44.507019 0.99943 " stroke="#ffffff" stroke-width="2" stroke-opacity="1" stroke-miterlimit="4"/></svg>