<svg xmlns="http://www.w3.org/2000/svg" xmlns:xlink="http://www.w3.org/1999/xlink" width="200" zoomAndPan="magnify" viewBox="0 0 150 56.249996" height="75" preserveAspectRatio="xMidYMid meet" version="1.0"><defs><g/><clipPath id="d0b34b70a0"><path d="M 32.945312 1.058594 L 116.964844 1.058594 L 116.964844 26.152344 L 32.945312 26.152344 Z M 32.945312 1.058594 " clip-rule="nonzero"/></clipPath></defs><path fill="#333333" d="M 91.496094 11.15625 C 93.292969 11.15625 94.75 12.605469 94.75 14.394531 C 94.75 16.183594 93.292969 17.632812 91.496094 17.632812 C 89.699219 17.632812 88.242188 16.183594 88.242188 14.394531 C 88.242188 12.605469 89.699219 11.15625 91.496094 11.15625 " fill-opacity="1" fill-rule="nonzero"/><path fill="#333333" d="M 58.402344 11.15625 C 60.199219 11.15625 61.65625 12.605469 61.65625 14.394531 C 61.65625 16.183594 60.199219 17.632812 58.402344 17.632812 C 56.605469 17.632812 55.148438 16.183594 55.148438 14.394531 C 55.148438 12.605469 56.605469 11.15625 58.402344 11.15625 " fill-opacity="1" fill-rule="nonzero"/><g clip-path="url(#d0b34b70a0)"><path fill="#333333" d="M 51.941406 8.761719 L 54.871094 8.761719 L 56.265625 7.175781 L 58.46875 7.175781 L 60.785156 9.871094 L 52.394531 9.871094 Z M 61.492188 9.871094 L 59.273438 7.175781 L 60.449219 7.175781 L 62.027344 8.75 L 62.027344 9.871094 Z M 64.910156 15.042969 C 64.910156 9.519531 69.402344 5.046875 74.949219 5.046875 C 80.496094 5.046875 84.992188 9.519531 84.992188 15.042969 C 84.992188 20.5625 80.496094 25.039062 74.949219 25.039062 C 69.402344 25.039062 64.910156 20.5625 64.910156 15.042969 Z M 87.871094 8.75 L 89.449219 7.175781 L 90.625 7.175781 L 88.40625 9.871094 L 87.871094 9.871094 Z M 89.113281 9.871094 L 91.429688 7.175781 L 93.632812 7.175781 L 95.027344 8.761719 L 97.957031 8.761719 L 97.503906 9.871094 Z M 32.980469 3.710938 C 32.980469 4.679688 33.769531 5.464844 34.742188 5.464844 L 48.316406 5.464844 C 45.320312 6.574219 38.800781 6.433594 36.746094 6.46875 C 34.6875 6.503906 35.003906 8.726562 36.011719 8.761719 C 37.023438 8.796875 37.441406 7.789062 37.441406 7.789062 L 49.191406 6.992188 L 51.488281 10.601562 L 62.027344 10.601562 L 62.027344 25.3125 L 66.582031 25.3125 L 67.277344 23.089844 C 69.277344 24.980469 71.972656 26.148438 74.949219 26.148438 C 77.925781 26.148438 80.621094 24.980469 82.621094 23.089844 L 83.316406 25.3125 L 87.871094 25.3125 L 87.871094 10.601562 L 98.410156 10.601562 L 100.710938 6.992188 L 112.457031 7.789062 C 112.457031 7.789062 112.875 8.796875 113.886719 8.761719 C 114.898438 8.726562 115.210938 6.503906 113.152344 6.46875 C 111.097656 6.433594 104.578125 6.574219 101.582031 5.464844 L 115.160156 5.464844 C 116.128906 5.464844 116.917969 4.679688 116.917969 3.710938 C 116.917969 2.742188 116.128906 1.960938 115.160156 1.960938 L 101.128906 1.960938 L 100.222656 1.058594 L 93.632812 1.058594 L 91.558594 3.121094 L 88.371094 3.121094 L 84.382812 6.992188 L 82.617188 6.992188 C 80.621094 5.101562 77.921875 3.9375 74.949219 3.9375 C 71.976562 3.9375 69.28125 5.101562 67.28125 6.992188 L 65.515625 6.992188 L 61.527344 3.121094 L 58.339844 3.121094 L 56.265625 1.058594 L 49.675781 1.058594 L 48.769531 1.960938 L 34.742188 1.960938 C 33.769531 1.960938 32.980469 2.742188 32.980469 3.710938 " fill-opacity="1" fill-rule="nonzero"/></g><path fill="#333333" d="M 81.367188 15.042969 C 81.367188 11.265625 78.375 8.195312 74.625 8.023438 C 74.734375 8.015625 74.839844 8.007812 74.949219 8.007812 C 78.851562 8.007812 82.015625 11.15625 82.015625 15.042969 C 82.015625 18.925781 78.851562 22.078125 74.949219 22.078125 C 74.839844 22.078125 74.734375 22.066406 74.625 22.058594 C 78.375 21.890625 81.367188 18.816406 81.367188 15.042969 Z M 65.953125 15.042969 C 65.953125 19.988281 69.980469 23.996094 74.949219 23.996094 C 79.917969 23.996094 83.945312 19.988281 83.945312 15.042969 C 83.945312 10.09375 79.917969 6.085938 74.949219 6.085938 C 69.980469 6.085938 65.953125 10.09375 65.953125 15.042969 " fill-opacity="1" fill-rule="nonzero"/><g fill="#333333" fill-opacity="1"><g transform="translate(29.393195, 44.258267)"><g><path d="M 13.078125 -11.15625 L 10.609375 -11.15625 L 10.1875 -13.40625 C 9.894531 -13.582031 9.472656 -13.738281 8.921875 -13.875 C 8.378906 -14.007812 7.800781 -14.078125 7.1875 -14.078125 C 6.289062 -14.078125 5.59375 -13.882812 5.09375 -13.5 C 4.601562 -13.125 4.359375 -12.640625 4.359375 -12.046875 C 4.359375 -11.484375 4.613281 -11.023438 5.125 -10.671875 C 5.644531 -10.316406 6.535156 -9.941406 7.796875 -9.546875 C 9.609375 -9.035156 10.976562 -8.367188 11.90625 -7.546875 C 12.84375 -6.722656 13.3125 -5.640625 13.3125 -4.296875 C 13.3125 -2.890625 12.753906 -1.78125 11.640625 -0.96875 C 10.535156 -0.164062 9.078125 0.234375 7.265625 0.234375 C 5.960938 0.234375 4.785156 0.03125 3.734375 -0.375 C 2.691406 -0.789062 1.820312 -1.363281 1.125 -2.09375 L 1.125 -5.515625 L 3.671875 -5.515625 L 4.015625 -3.1875 C 4.347656 -2.914062 4.796875 -2.691406 5.359375 -2.515625 C 5.929688 -2.335938 6.566406 -2.25 7.265625 -2.25 C 8.160156 -2.25 8.84375 -2.429688 9.3125 -2.796875 C 9.78125 -3.171875 10.015625 -3.664062 10.015625 -4.28125 C 10.015625 -4.90625 9.789062 -5.410156 9.34375 -5.796875 C 8.894531 -6.179688 8.113281 -6.539062 7 -6.875 C 5.050781 -7.4375 3.578125 -8.101562 2.578125 -8.875 C 1.585938 -9.644531 1.09375 -10.703125 1.09375 -12.046875 C 1.09375 -13.378906 1.65625 -14.46875 2.78125 -15.3125 C 3.90625 -16.15625 5.316406 -16.585938 7.015625 -16.609375 C 8.273438 -16.609375 9.421875 -16.414062 10.453125 -16.03125 C 11.492188 -15.65625 12.367188 -15.144531 13.078125 -14.5 Z M 13.078125 -11.15625 "/></g></g></g><g fill="#333333" fill-opacity="1"><g transform="translate(43.370685, 44.258267)"><g><path d="M 14.0625 -10.859375 L 11.609375 -10.859375 L 11.28125 -13.046875 C 10.957031 -13.367188 10.546875 -13.625 10.046875 -13.8125 C 9.554688 -14 8.976562 -14.09375 8.3125 -14.09375 C 6.882812 -14.09375 5.785156 -13.570312 5.015625 -12.53125 C 4.253906 -11.5 3.875 -10.148438 3.875 -8.484375 L 3.875 -7.90625 C 3.875 -6.238281 4.253906 -4.882812 5.015625 -3.84375 C 5.785156 -2.800781 6.867188 -2.28125 8.265625 -2.28125 C 8.910156 -2.28125 9.5 -2.375 10.03125 -2.5625 C 10.570312 -2.75 10.988281 -3.003906 11.28125 -3.328125 L 11.609375 -5.515625 L 14.0625 -5.515625 L 14.0625 -2.265625 C 13.394531 -1.503906 12.550781 -0.894531 11.53125 -0.4375 C 10.507812 0.0078125 9.363281 0.234375 8.09375 0.234375 C 5.894531 0.234375 4.09375 -0.523438 2.6875 -2.046875 C 1.28125 -3.566406 0.578125 -5.519531 0.578125 -7.90625 L 0.578125 -8.46875 C 0.578125 -10.84375 1.273438 -12.796875 2.671875 -14.328125 C 4.066406 -15.859375 5.875 -16.625 8.09375 -16.625 C 9.363281 -16.625 10.503906 -16.390625 11.515625 -15.921875 C 12.535156 -15.460938 13.382812 -14.851562 14.0625 -14.09375 Z M 14.0625 -10.859375 "/></g></g></g><g fill="#333333" fill-opacity="1"><g transform="translate(58.304767, 44.258267)"><g><path d="M 15.609375 -8.0625 C 15.609375 -5.664062 14.921875 -3.679688 13.546875 -2.109375 C 12.171875 -0.546875 10.375 0.234375 8.15625 0.234375 C 5.945312 0.234375 4.160156 -0.546875 2.796875 -2.109375 C 1.429688 -3.679688 0.75 -5.664062 0.75 -8.0625 L 0.75 -8.3125 C 0.75 -10.695312 1.425781 -12.675781 2.78125 -14.25 C 4.144531 -15.832031 5.929688 -16.625 8.140625 -16.625 C 10.367188 -16.625 12.171875 -15.832031 13.546875 -14.25 C 14.921875 -12.675781 15.609375 -10.695312 15.609375 -8.3125 Z M 12.328125 -8.34375 C 12.328125 -10.03125 11.972656 -11.40625 11.265625 -12.46875 C 10.566406 -13.53125 9.523438 -14.0625 8.140625 -14.0625 C 6.765625 -14.0625 5.738281 -13.535156 5.0625 -12.484375 C 4.382812 -11.429688 4.046875 -10.050781 4.046875 -8.34375 L 4.046875 -8.0625 C 4.046875 -6.34375 4.382812 -4.953125 5.0625 -3.890625 C 5.75 -2.835938 6.78125 -2.3125 8.15625 -2.3125 C 9.539062 -2.3125 10.582031 -2.835938 11.28125 -3.890625 C 11.976562 -4.953125 12.328125 -6.34375 12.328125 -8.0625 Z M 12.328125 -8.34375 "/></g></g></g><g fill="#333333" fill-opacity="1"><g transform="translate(74.600585, 44.258267)"><g><path d="M 15.609375 -8.0625 C 15.609375 -5.664062 14.921875 -3.679688 13.546875 -2.109375 C 12.171875 -0.546875 10.375 0.234375 8.15625 0.234375 C 5.945312 0.234375 4.160156 -0.546875 2.796875 -2.109375 C 1.429688 -3.679688 0.75 -5.664062 0.75 -8.0625 L 0.75 -8.3125 C 0.75 -10.695312 1.425781 -12.675781 2.78125 -14.25 C 4.144531 -15.832031 5.929688 -16.625 8.140625 -16.625 C 10.367188 -16.625 12.171875 -15.832031 13.546875 -14.25 C 14.921875 -12.675781 15.609375 -10.695312 15.609375 -8.3125 Z M 12.328125 -8.34375 C 12.328125 -10.03125 11.972656 -11.40625 11.265625 -12.46875 C 10.566406 -13.53125 9.523438 -14.0625 8.140625 -14.0625 C 6.765625 -14.0625 5.738281 -13.535156 5.0625 -12.484375 C 4.382812 -11.429688 4.046875 -10.050781 4.046875 -8.34375 L 4.046875 -8.0625 C 4.046875 -6.34375 4.382812 -4.953125 5.0625 -3.890625 C 5.75 -2.835938 6.78125 -2.3125 8.15625 -2.3125 C 9.539062 -2.3125 10.582031 -2.835938 11.28125 -3.890625 C 11.976562 -4.953125 12.328125 -6.34375 12.328125 -8.0625 Z M 12.328125 -8.34375 "/></g></g></g><g fill="#333333" fill-opacity="1"><g transform="translate(90.896404, 44.258267)"><g><path d="M 15.0625 -16.390625 L 15.0625 -12.015625 L 12.53125 -12.015625 L 12.40625 -13.859375 L 9.390625 -13.859375 L 9.390625 -2.3125 L 11.140625 -1.96875 L 11.140625 0 L 4.34375 0 L 4.34375 -1.96875 L 6.09375 -2.3125 L 6.09375 -13.859375 L 3.09375 -13.859375 L 2.953125 -12.015625 L 0.453125 -12.015625 L 0.453125 -16.390625 Z M 15.0625 -16.390625 "/></g></g></g><g fill="#333333" fill-opacity="1"><g transform="translate(106.393187, 44.258267)"><g><path d="M 13.078125 -11.15625 L 10.609375 -11.15625 L 10.1875 -13.40625 C 9.894531 -13.582031 9.472656 -13.738281 8.921875 -13.875 C 8.378906 -14.007812 7.800781 -14.078125 7.1875 -14.078125 C 6.289062 -14.078125 5.59375 -13.882812 5.09375 -13.5 C 4.601562 -13.125 4.359375 -12.640625 4.359375 -12.046875 C 4.359375 -11.484375 4.613281 -11.023438 5.125 -10.671875 C 5.644531 -10.316406 6.535156 -9.941406 7.796875 -9.546875 C 9.609375 -9.035156 10.976562 -8.367188 11.90625 -7.546875 C 12.84375 -6.722656 13.3125 -5.640625 13.3125 -4.296875 C 13.3125 -2.890625 12.753906 -1.78125 11.640625 -0.96875 C 10.535156 -0.164062 9.078125 0.234375 7.265625 0.234375 C 5.960938 0.234375 4.785156 0.03125 3.734375 -0.375 C 2.691406 -0.789062 1.820312 -1.363281 1.125 -2.09375 L 1.125 -5.515625 L 3.671875 -5.515625 L 4.015625 -3.1875 C 4.347656 -2.914062 4.796875 -2.691406 5.359375 -2.515625 C 5.929688 -2.335938 6.566406 -2.25 7.265625 -2.25 C 8.160156 -2.25 8.84375 -2.429688 9.3125 -2.796875 C 9.78125 -3.171875 10.015625 -3.664062 10.015625 -4.28125 C 10.015625 -4.90625 9.789062 -5.410156 9.34375 -5.796875 C 8.894531 -6.179688 8.113281 -6.539062 7 -6.875 C 5.050781 -7.4375 3.578125 -8.101562 2.578125 -8.875 C 1.585938 -9.644531 1.09375 -10.703125 1.09375 -12.046875 C 1.09375 -13.378906 1.65625 -14.46875 2.78125 -15.3125 C 3.90625 -16.15625 5.316406 -16.585938 7.015625 -16.609375 C 8.273438 -16.609375 9.421875 -16.414062 10.453125 -16.03125 C 11.492188 -15.65625 12.367188 -15.144531 13.078125 -14.5 Z M 13.078125 -11.15625 "/></g></g></g><g fill="#333333" fill-opacity="0.4"><g transform="translate(49.125124, 53.274079)"><g><path d="M 0.125 -0.515625 L 0.4375 -0.5625 L 1.75 -4.328125 L 2.625 -4.328125 L 3.9375 -0.5625 L 4.25 -0.515625 L 4.25 0 L 2.78125 0 L 2.78125 -0.515625 L 3.078125 -0.578125 L 2.890625 -1.171875 L 1.484375 -1.171875 L 1.296875 -0.578125 L 1.59375 -0.515625 L 1.59375 0 L 0.125 0 Z M 1.6875 -1.796875 L 2.6875 -1.796875 L 2.1875 -3.328125 L 2.171875 -3.328125 Z M 1.6875 -1.796875 "/></g></g></g><g fill="#333333" fill-opacity="0.4"><g transform="translate(55.217439, 53.274079)"><g><path d="M 2.109375 -4.328125 C 2.640625 -4.328125 3.070312 -4.15625 3.40625 -3.8125 C 3.75 -3.476562 3.921875 -3.046875 3.921875 -2.515625 L 3.921875 -1.796875 C 3.921875 -1.265625 3.75 -0.832031 3.40625 -0.5 C 3.070312 -0.164062 2.640625 0 2.109375 0 L 0.171875 0 L 0.171875 -0.515625 L 0.625 -0.609375 L 0.625 -3.703125 L 0.171875 -3.796875 L 0.171875 -4.328125 Z M 1.5 -3.65625 L 1.5 -0.671875 L 2.0625 -0.671875 C 2.375 -0.671875 2.617188 -0.773438 2.796875 -0.984375 C 2.972656 -1.191406 3.0625 -1.460938 3.0625 -1.796875 L 3.0625 -2.515625 C 3.0625 -2.859375 2.972656 -3.132812 2.796875 -3.34375 C 2.617188 -3.550781 2.375 -3.65625 2.0625 -3.65625 Z M 1.5 -3.65625 "/></g></g></g><g fill="#333333" fill-opacity="0.4"><g transform="translate(61.13172, 53.274079)"><g><path d="M 1.6875 -3.796875 L 1.34375 -3.734375 L 2.109375 -1.15625 L 2.171875 -0.90625 L 2.1875 -0.90625 L 2.234375 -1.140625 L 3 -3.734375 L 2.6875 -3.796875 L 2.6875 -4.328125 L 4.265625 -4.328125 L 4.265625 -3.796875 L 3.890625 -3.75 L 2.625 0 L 1.734375 0 L 0.453125 -3.75 L 0.09375 -3.796875 L 0.09375 -4.328125 L 1.6875 -4.328125 Z M 1.6875 -3.796875 "/></g></g></g><g fill="#333333" fill-opacity="0.4"><g transform="translate(67.21513, 53.274079)"><g><path d="M 2.953125 -1.90625 L 1.5 -1.90625 L 1.5 -0.671875 L 2.890625 -0.671875 L 2.921875 -1.1875 L 3.578125 -1.1875 L 3.578125 0 L 0.171875 0 L 0.171875 -0.515625 L 0.625 -0.609375 L 0.625 -3.703125 L 0.171875 -3.796875 L 0.171875 -4.328125 L 3.578125 -4.328125 L 3.578125 -3.140625 L 2.921875 -3.140625 L 2.875 -3.65625 L 1.5 -3.65625 L 1.5 -2.5625 L 2.953125 -2.5625 Z M 2.953125 -1.90625 "/></g></g></g><g fill="#333333" fill-opacity="0.4"><g transform="translate(72.823783, 53.274079)"><g><path d="M 4.578125 -4.328125 L 4.578125 -3.796875 L 4.125 -3.703125 L 4.125 0 L 3.25 0 L 1.515625 -2.90625 L 1.5 -2.90625 L 1.5 -0.609375 L 1.953125 -0.515625 L 1.953125 0 L 0.171875 0 L 0.171875 -0.515625 L 0.625 -0.609375 L 0.625 -3.703125 L 0.171875 -3.796875 L 0.171875 -4.328125 L 1.5 -4.328125 L 3.234375 -1.40625 L 3.25 -1.421875 L 3.25 -3.703125 L 2.796875 -3.796875 L 2.796875 -4.328125 Z M 4.578125 -4.328125 "/></g></g></g><g fill="#333333" fill-opacity="0.4"><g transform="translate(79.245459, 53.274079)"><g><path d="M 3.96875 -4.328125 L 3.96875 -3.171875 L 3.3125 -3.171875 L 3.265625 -3.65625 L 2.46875 -3.65625 L 2.46875 -0.609375 L 2.9375 -0.515625 L 2.9375 0 L 1.140625 0 L 1.140625 -0.515625 L 1.609375 -0.609375 L 1.609375 -3.65625 L 0.8125 -3.65625 L 0.78125 -3.171875 L 0.125 -3.171875 L 0.125 -4.328125 Z M 3.96875 -4.328125 "/></g></g></g><g fill="#333333" fill-opacity="0.4"><g transform="translate(85.058856, 53.274079)"><g><path d="M 1.90625 -4.328125 L 1.90625 -3.796875 L 1.4375 -3.703125 L 1.4375 -1.453125 C 1.4375 -1.171875 1.515625 -0.957031 1.671875 -0.8125 C 1.828125 -0.675781 2.035156 -0.609375 2.296875 -0.609375 C 2.566406 -0.609375 2.78125 -0.675781 2.9375 -0.8125 C 3.09375 -0.957031 3.171875 -1.171875 3.171875 -1.453125 L 3.171875 -3.703125 L 2.71875 -3.796875 L 2.71875 -4.328125 L 4.5 -4.328125 L 4.5 -3.796875 L 4.046875 -3.703125 L 4.046875 -1.453125 C 4.046875 -0.972656 3.882812 -0.597656 3.5625 -0.328125 C 3.238281 -0.0664062 2.816406 0.0625 2.296875 0.0625 C 1.785156 0.0625 1.367188 -0.0664062 1.046875 -0.328125 C 0.734375 -0.597656 0.578125 -0.972656 0.578125 -1.453125 L 0.578125 -3.703125 L 0.109375 -3.796875 L 0.109375 -4.328125 Z M 1.90625 -4.328125 "/></g></g></g><g fill="#333333" fill-opacity="0.4"><g transform="translate(91.376682, 53.274079)"><g><path d="M 2.109375 -4.328125 C 2.597656 -4.328125 2.984375 -4.210938 3.265625 -3.984375 C 3.546875 -3.753906 3.6875 -3.441406 3.6875 -3.046875 C 3.6875 -2.835938 3.625 -2.648438 3.5 -2.484375 C 3.382812 -2.328125 3.210938 -2.195312 2.984375 -2.09375 C 3.242188 -2.019531 3.425781 -1.894531 3.53125 -1.71875 C 3.644531 -1.539062 3.703125 -1.328125 3.703125 -1.078125 L 3.703125 -0.859375 C 3.703125 -0.753906 3.722656 -0.675781 3.765625 -0.625 C 3.804688 -0.570312 3.867188 -0.539062 3.953125 -0.53125 L 4.0625 -0.515625 L 4.0625 0 L 3.609375 0 C 3.328125 0 3.128906 -0.0703125 3.015625 -0.21875 C 2.898438 -0.375 2.84375 -0.570312 2.84375 -0.8125 L 2.84375 -1.0625 C 2.84375 -1.269531 2.785156 -1.429688 2.671875 -1.546875 C 2.566406 -1.671875 2.410156 -1.738281 2.203125 -1.75 L 1.5 -1.75 L 1.5 -0.609375 L 1.953125 -0.515625 L 1.953125 0 L 0.171875 0 L 0.171875 -0.515625 L 0.625 -0.609375 L 0.625 -3.703125 L 0.171875 -3.796875 L 0.171875 -4.328125 Z M 1.5 -2.421875 L 2.09375 -2.421875 C 2.332031 -2.421875 2.507812 -2.46875 2.625 -2.5625 C 2.75 -2.664062 2.8125 -2.816406 2.8125 -3.015625 C 2.8125 -3.210938 2.75 -3.367188 2.625 -3.484375 C 2.507812 -3.597656 2.335938 -3.65625 2.109375 -3.65625 L 1.5 -3.65625 Z M 1.5 -2.421875 "/></g></g></g><g fill="#333333" fill-opacity="0.4"><g transform="translate(97.282059, 53.274079)"><g><path d="M 2.953125 -1.90625 L 1.5 -1.90625 L 1.5 -0.671875 L 2.890625 -0.671875 L 2.921875 -1.1875 L 3.578125 -1.1875 L 3.578125 0 L 0.171875 0 L 0.171875 -0.515625 L 0.625 -0.609375 L 0.625 -3.703125 L 0.171875 -3.796875 L 0.171875 -4.328125 L 3.578125 -4.328125 L 3.578125 -3.140625 L 2.921875 -3.140625 L 2.875 -3.65625 L 1.5 -3.65625 L 1.5 -2.5625 L 2.953125 -2.5625 Z M 2.953125 -1.90625 "/></g></g></g><g fill="#333333" fill-opacity="1"><g transform="translate(48.8563, 53.005254)"><g><path d="M 0.125 -0.515625 L 0.4375 -0.5625 L 1.75 -4.328125 L 2.625 -4.328125 L 3.9375 -0.5625 L 4.25 -0.515625 L 4.25 0 L 2.78125 0 L 2.78125 -0.515625 L 3.078125 -0.578125 L 2.890625 -1.171875 L 1.484375 -1.171875 L 1.296875 -0.578125 L 1.59375 -0.515625 L 1.59375 0 L 0.125 0 Z M 1.6875 -1.796875 L 2.6875 -1.796875 L 2.1875 -3.328125 L 2.171875 -3.328125 Z M 1.6875 -1.796875 "/></g></g></g><g fill="#333333" fill-opacity="1"><g transform="translate(54.948615, 53.005254)"><g><path d="M 2.109375 -4.328125 C 2.640625 -4.328125 3.070312 -4.15625 3.40625 -3.8125 C 3.75 -3.476562 3.921875 -3.046875 3.921875 -2.515625 L 3.921875 -1.796875 C 3.921875 -1.265625 3.75 -0.832031 3.40625 -0.5 C 3.070312 -0.164062 2.640625 0 2.109375 0 L 0.171875 0 L 0.171875 -0.515625 L 0.625 -0.609375 L 0.625 -3.703125 L 0.171875 -3.796875 L 0.171875 -4.328125 Z M 1.5 -3.65625 L 1.5 -0.671875 L 2.0625 -0.671875 C 2.375 -0.671875 2.617188 -0.773438 2.796875 -0.984375 C 2.972656 -1.191406 3.0625 -1.460938 3.0625 -1.796875 L 3.0625 -2.515625 C 3.0625 -2.859375 2.972656 -3.132812 2.796875 -3.34375 C 2.617188 -3.550781 2.375 -3.65625 2.0625 -3.65625 Z M 1.5 -3.65625 "/></g></g></g><g fill="#333333" fill-opacity="1"><g transform="translate(60.862896, 53.005254)"><g><path d="M 1.6875 -3.796875 L 1.34375 -3.734375 L 2.109375 -1.15625 L 2.171875 -0.90625 L 2.1875 -0.90625 L 2.234375 -1.140625 L 3 -3.734375 L 2.6875 -3.796875 L 2.6875 -4.328125 L 4.265625 -4.328125 L 4.265625 -3.796875 L 3.890625 -3.75 L 2.625 0 L 1.734375 0 L 0.453125 -3.75 L 0.09375 -3.796875 L 0.09375 -4.328125 L 1.6875 -4.328125 Z M 1.6875 -3.796875 "/></g></g></g><g fill="#333333" fill-opacity="1"><g transform="translate(66.946306, 53.005254)"><g><path d="M 2.953125 -1.90625 L 1.5 -1.90625 L 1.5 -0.671875 L 2.890625 -0.671875 L 2.921875 -1.1875 L 3.578125 -1.1875 L 3.578125 0 L 0.171875 0 L 0.171875 -0.515625 L 0.625 -0.609375 L 0.625 -3.703125 L 0.171875 -3.796875 L 0.171875 -4.328125 L 3.578125 -4.328125 L 3.578125 -3.140625 L 2.921875 -3.140625 L 2.875 -3.65625 L 1.5 -3.65625 L 1.5 -2.5625 L 2.953125 -2.5625 Z M 2.953125 -1.90625 "/></g></g></g><g fill="#333333" fill-opacity="1"><g transform="translate(72.554959, 53.005254)"><g><path d="M 4.578125 -4.328125 L 4.578125 -3.796875 L 4.125 -3.703125 L 4.125 0 L 3.25 0 L 1.515625 -2.90625 L 1.5 -2.90625 L 1.5 -0.609375 L 1.953125 -0.515625 L 1.953125 0 L 0.171875 0 L 0.171875 -0.515625 L 0.625 -0.609375 L 0.625 -3.703125 L 0.171875 -3.796875 L 0.171875 -4.328125 L 1.5 -4.328125 L 3.234375 -1.40625 L 3.25 -1.421875 L 3.25 -3.703125 L 2.796875 -3.796875 L 2.796875 -4.328125 Z M 4.578125 -4.328125 "/></g></g></g><g fill="#333333" fill-opacity="1"><g transform="translate(78.976635, 53.005254)"><g><path d="M 3.96875 -4.328125 L 3.96875 -3.171875 L 3.3125 -3.171875 L 3.265625 -3.65625 L 2.46875 -3.65625 L 2.46875 -0.609375 L 2.9375 -0.515625 L 2.9375 0 L 1.140625 0 L 1.140625 -0.515625 L 1.609375 -0.609375 L 1.609375 -3.65625 L 0.8125 -3.65625 L 0.78125 -3.171875 L 0.125 -3.171875 L 0.125 -4.328125 Z M 3.96875 -4.328125 "/></g></g></g><g fill="#333333" fill-opacity="1"><g transform="translate(84.790032, 53.005254)"><g><path d="M 1.90625 -4.328125 L 1.90625 -3.796875 L 1.4375 -3.703125 L 1.4375 -1.453125 C 1.4375 -1.171875 1.515625 -0.957031 1.671875 -0.8125 C 1.828125 -0.675781 2.035156 -0.609375 2.296875 -0.609375 C 2.566406 -0.609375 2.78125 -0.675781 2.9375 -0.8125 C 3.09375 -0.957031 3.171875 -1.171875 3.171875 -1.453125 L 3.171875 -3.703125 L 2.71875 -3.796875 L 2.71875 -4.328125 L 4.5 -4.328125 L 4.5 -3.796875 L 4.046875 -3.703125 L 4.046875 -1.453125 C 4.046875 -0.972656 3.882812 -0.597656 3.5625 -0.328125 C 3.238281 -0.0664062 2.816406 0.0625 2.296875 0.0625 C 1.785156 0.0625 1.367188 -0.0664062 1.046875 -0.328125 C 0.734375 -0.597656 0.578125 -0.972656 0.578125 -1.453125 L 0.578125 -3.703125 L 0.109375 -3.796875 L 0.109375 -4.328125 Z M 1.90625 -4.328125 "/></g></g></g><g fill="#333333" fill-opacity="1"><g transform="translate(91.107858, 53.005254)"><g><path d="M 2.109375 -4.328125 C 2.597656 -4.328125 2.984375 -4.210938 3.265625 -3.984375 C 3.546875 -3.753906 3.6875 -3.441406 3.6875 -3.046875 C 3.6875 -2.835938 3.625 -2.648438 3.5 -2.484375 C 3.382812 -2.328125 3.210938 -2.195312 2.984375 -2.09375 C 3.242188 -2.019531 3.425781 -1.894531 3.53125 -1.71875 C 3.644531 -1.539062 3.703125 -1.328125 3.703125 -1.078125 L 3.703125 -0.859375 C 3.703125 -0.753906 3.722656 -0.675781 3.765625 -0.625 C 3.804688 -0.570312 3.867188 -0.539062 3.953125 -0.53125 L 4.0625 -0.515625 L 4.0625 0 L 3.609375 0 C 3.328125 0 3.128906 -0.0703125 3.015625 -0.21875 C 2.898438 -0.375 2.84375 -0.570312 2.84375 -0.8125 L 2.84375 -1.0625 C 2.84375 -1.269531 2.785156 -1.429688 2.671875 -1.546875 C 2.566406 -1.671875 2.410156 -1.738281 2.203125 -1.75 L 1.5 -1.75 L 1.5 -0.609375 L 1.953125 -0.515625 L 1.953125 0 L 0.171875 0 L 0.171875 -0.515625 L 0.625 -0.609375 L 0.625 -3.703125 L 0.171875 -3.796875 L 0.171875 -4.328125 Z M 1.5 -2.421875 L 2.09375 -2.421875 C 2.332031 -2.421875 2.507812 -2.46875 2.625 -2.5625 C 2.75 -2.664062 2.8125 -2.816406 2.8125 -3.015625 C 2.8125 -3.210938 2.75 -3.367188 2.625 -3.484375 C 2.507812 -3.597656 2.335938 -3.65625 2.109375 -3.65625 L 1.5 -3.65625 Z M 1.5 -2.421875 "/></g></g></g><g fill="#333333" fill-opacity="1"><g transform="translate(97.013235, 53.005254)"><g><path d="M 2.953125 -1.90625 L 1.5 -1.90625 L 1.5 -0.671875 L 2.890625 -0.671875 L 2.921875 -1.1875 L 3.578125 -1.1875 L 3.578125 0 L 0.171875 0 L 0.171875 -0.515625 L 0.625 -0.609375 L 0.625 -3.703125 L 0.171875 -3.796875 L 0.171875 -4.328125 L 3.578125 -4.328125 L 3.578125 -3.140625 L 2.921875 -3.140625 L 2.875 -3.65625 L 1.5 -3.65625 L 1.5 -2.5625 L 2.953125 -2.5625 Z M 2.953125 -1.90625 "/></g></g></g><path stroke-linecap="butt" transform="matrix(0.380177, -0.00000000000000099, 0.00000000000000099, 0.380177, 16.091204, 50.534102)" fill="none" stroke-linejoin="miter" d="M -0.00357872 0.99943 L 44.506942 0.99943 " stroke="#333333" stroke-width="2" stroke-opacity="1" stroke-miterlimit="4"/><path stroke-linecap="butt" transform="matrix(0.380177, -0.00000000000000099, 0.00000000000000099, 0.380177, 116.290394, 50.534102)" fill="none" stroke-linejoin="miter" d="M -0.00350178 0.99943 L 44.507019 0.99943 " stroke="#333333" stroke-width="2" stroke-opacity="1" stroke-miterlimit="4"/></svg>